# xmcd
#
# Track frame offsets:
#	182
#	17460
#	37230
#	52637
#	72302
#	91250
#	110082
#	128295
#	143845
#	166435
#	183030
#
# Disc length: 2680 seconds
#
# Revision: 1
# Processed by: cddbd v1.5.2PL0 Copyright (c) Steve Scherf et al.
# Submitted via: EasyCDDAExtractor 15.3.0.1
#
DISCID=860a760b
DTITLE=Maria Conchita Alonso - Hazme Sentir
DYEAR=1990
DGENRE=Latin
TTITLE0=Hazme Sentir
TTITLE1=Soy El Amor
TTITLE2=A El Lo Quiero
TTITLE3=Ese Mañana
TTITLE4=Matame
TTITLE5=En La Noche
TTITLE6=Acercate Mas
TTITLE7=No Encuentro Paz
TTITLE8=El Tonto Aquel
TTITLE9=Las Sombras De La Noche
TTITLE10=Me Vuelve Loca Tu Amor
EXTD=
EXTT0=
EXTT1=
EXTT2=
EXTT3=
EXTT4=
EXTT5=
EXTT6=
EXTT7=
EXTT8=
EXTT9=
EXTT10=
PLAYORDER=
